<?xml version="1.0" encoding="UTF-8"?>
<!DOCTYPE svg PUBLIC "-//W3C//DTD SVG 1.1//EN" "http://www.w3.org/Graphics/SVG/1.1/DTD/svg11.dtd">
<svg xmlns="http://www.w3.org/2000/svg" version="1.1" width="849px" height="567px" style="shape-rendering:geometricPrecision; text-rendering:geometricPrecision; image-rendering:optimizeQuality; fill-rule:evenodd; clip-rule:evenodd" xmlns:xlink="http://www.w3.org/1999/xlink">
<g><path style="opacity:0.982" fill="#3b2920" d="M 404.5,21.5 C 477.93,16.9588 533.43,45.9588 571,108.5C 592.496,151.876 596.496,196.876 583,243.5C 573.72,275.724 559.386,305.391 540,332.5C 507.403,375.268 468.903,411.602 424.5,441.5C 369.672,405.84 325.172,360.173 291,304.5C 274.094,274.446 262.76,242.446 257,208.5C 252.67,150.798 271.503,102.298 313.5,63C 339.872,40.4809 370.205,26.6476 404.5,21.5 Z M 420.5,49.5 C 483.65,50.8684 528.817,79.8684 556,136.5C 576.752,191.17 568.752,241.17 532,286.5C 489.864,330.329 439.364,344.162 380.5,328C 324.101,307.259 291.601,267.093 283,207.5C 279.468,139.702 307.968,90.8688 368.5,61C 385.457,54.7783 402.79,50.945 420.5,49.5 Z M 408.5,79.5 C 468.395,75.6731 509.561,101.34 532,156.5C 545.588,203.656 534.754,244.156 499.5,278C 459.456,309.195 416.456,313.861 370.5,292C 322.366,261.633 304.2,218.467 316,162.5C 329.997,116 360.831,88.3331 408.5,79.5 Z"/></g>
<g><path style="opacity:0.915" fill="#3b2920" d="M 407.5,71.5 C 470.355,67.4881 514.189,94.1548 539,151.5C 556.315,210.89 540.149,258.723 490.5,295C 445.988,321.255 401.655,320.921 357.5,294C 308.546,256.799 293.046,208.632 311,149.5C 329.349,106.309 361.516,80.3093 407.5,71.5 Z M 408.5,79.5 C 360.831,88.3331 329.997,116 316,162.5C 304.2,218.467 322.366,261.633 370.5,292C 416.456,313.861 459.456,309.195 499.5,278C 534.754,244.156 545.588,203.656 532,156.5C 509.561,101.34 468.395,75.6731 408.5,79.5 Z"/></g>
<g><path style="opacity:0.882" fill="#3b2921" d="M 422.5,95.5 C 416.97,90.9681 417.303,86.9681 423.5,83.5C 429.413,84.4258 431.08,87.7591 428.5,93.5C 427.205,94.0983 425.872,94.5983 424.5,95C 424.833,95.3333 425.167,95.6667 425.5,96C 424.251,96.7401 423.251,96.5735 422.5,95.5 Z"/></g>
<g><path style="opacity:0.891" fill="#3a2921" d="M 370.5,97.5 C 378.2,97.0025 380.534,100.336 377.5,107.5C 372.573,110.3 369.24,108.967 367.5,103.5C 367.984,101.199 368.984,99.1992 370.5,97.5 Z"/></g>
<g><path style="opacity:0.891" fill="#3a2921" d="M 473.5,97.5 C 481.2,97.0025 483.534,100.336 480.5,107.5C 475.573,110.3 472.24,108.967 470.5,103.5C 470.984,101.199 471.984,99.1992 473.5,97.5 Z"/></g>
<g><path style="opacity:0.937" fill="#3b2920" d="M 423.5,102.5 C 424.675,102.281 425.675,102.614 426.5,103.5C 429.862,109.388 432.528,115.554 434.5,122C 430.993,141.736 429.327,161.569 429.5,181.5C 435.812,186.119 437.145,191.953 433.5,199C 445.414,210.252 457.914,220.752 471,230.5C 473.213,235.304 474.713,240.304 475.5,245.5C 470.298,244.711 465.298,243.211 460.5,241C 450.585,227.747 439.918,215.081 428.5,203C 417.604,203.436 413.104,198.269 415,187.5C 416.333,184.833 418.333,182.833 421,181.5C 420.671,161.55 418.838,141.716 415.5,122C 417.758,115.32 420.424,108.82 423.5,102.5 Z"/></g>
<g><path style="opacity:0.891" fill="#3a2921" d="M 332.5,135.5 C 340.2,135.002 342.534,138.336 339.5,145.5C 334.573,148.3 331.24,146.967 329.5,141.5C 329.984,139.199 330.984,137.199 332.5,135.5 Z"/></g>
<g><path style="opacity:0.891" fill="#3a2921" d="M 509.5,135.5 C 517.2,135.002 519.534,138.336 516.5,145.5C 511.573,148.3 508.24,146.967 506.5,141.5C 506.984,139.199 507.984,137.199 509.5,135.5 Z"/></g>
<g><path style="opacity:0.891" fill="#3a2921" d="M 318.5,186.5 C 326.2,186.002 328.534,189.336 325.5,196.5C 320.573,199.3 317.24,197.967 315.5,192.5C 315.984,190.199 316.984,188.199 318.5,186.5 Z"/></g>
<g><path style="opacity:0.891" fill="#3a2921" d="M 523.5,186.5 C 531.2,186.002 533.534,189.336 530.5,196.5C 525.573,199.3 522.24,197.967 520.5,192.5C 520.984,190.199 521.984,188.199 523.5,186.5 Z"/></g>
<g><path style="opacity:0.891" fill="#3a2921" d="M 334.5,237.5 C 342.2,237.002 344.534,240.336 341.5,247.5C 336.573,250.3 333.24,248.967 331.5,243.5C 331.984,241.199 332.984,239.199 334.5,237.5 Z"/></g>
<g><path style="opacity:0.891" fill="#3a2921" d="M 510.5,237.5 C 518.2,237.002 520.534,240.336 517.5,247.5C 512.573,250.3 509.24,248.967 507.5,243.5C 507.984,241.199 508.984,239.199 510.5,237.5 Z"/></g>
<g><path style="opacity:0.891" fill="#3a2921" d="M 369.5,275.5 C 377.2,275.002 379.534,278.336 376.5,285.5C 371.573,288.3 368.24,286.967 366.5,281.5C 366.984,279.199 367.984,277.199 369.5,275.5 Z"/></g>
<g><path style="opacity:0.891" fill="#3a2921" d="M 472.5,275.5 C 480.2,275.002 482.534,278.336 479.5,285.5C 474.573,288.3 471.24,286.967 469.5,281.5C 469.984,279.199 470.984,277.199 472.5,275.5 Z"/></g>
<g><path style="opacity:0.891" fill="#3a2921" d="M 421.5,289.5 C 429.2,289.002 431.534,292.336 428.5,299.5C 423.573,302.3 420.24,300.967 418.5,295.5C 418.984,293.199 419.984,291.199 421.5,289.5 Z"/></g>
<g><path style="opacity:0.924" fill="#3c2a20" d="M 240.5,342.5 C 258.17,342.333 275.836,342.5 293.5,343C 298.525,346.52 302.525,351.02 305.5,356.5C 304.619,357.971 303.286,358.804 301.5,359C 274.5,359.667 247.5,359.667 220.5,359C 218.699,358.683 218.366,358.016 219.5,357C 226.403,351.913 233.403,347.08 240.5,342.5 Z"/></g>
<g><path style="opacity:0.975" fill="#d5cea2" d="M 552.5,342.5 C 570.503,342.333 588.503,342.5 606.5,343C 614.645,347.241 622.312,352.241 629.5,358C 601.92,359.649 574.253,359.982 546.5,359C 543.371,358.883 542.205,357.383 543,354.5C 546.381,350.625 549.547,346.625 552.5,342.5 Z"/></g>
<g><path style="opacity:0.982" fill="#d4cea2" d="M 202.5,368.5 C 227.169,368.333 251.836,368.5 276.5,369C 282.859,369.169 289.193,369.669 295.5,370.5C 290.14,377.359 284.974,384.359 280,391.5C 278.135,393.783 275.968,395.616 273.5,397C 238.833,397.667 204.167,397.667 169.5,397C 167.699,396.683 167.366,396.016 168.5,395C 180.446,386.871 191.779,378.038 202.5,368.5 Z"/></g>
<g><path style="opacity:0.935" fill="#3b2a21" d="M 308.5,368.5 C 311.187,368.336 313.854,368.503 316.5,369C 324.833,378 333.167,387 341.5,396C 324.318,397.651 306.984,397.984 289.5,397C 289.167,396.667 288.833,396.333 288.5,396C 295.298,386.892 301.965,377.726 308.5,368.5 Z"/></g>
<g><path style="opacity:0.966" fill="#d3cda2" d="M 530.5,369.5 C 533.85,369.335 537.183,369.502 540.5,370C 546.693,378.026 552.693,386.193 558.5,394.5C 555.215,395.324 551.882,395.824 548.5,396C 534.833,396.667 521.167,396.667 507.5,396C 507.167,395.667 506.833,395.333 506.5,395C 515.071,386.932 523.071,378.432 530.5,369.5 Z"/></g>
<g><path style="opacity:0.98" fill="#3b2a1f" d="M 570.5,369.5 C 594.836,369.333 619.169,369.5 643.5,370C 655.815,377.829 667.815,386.162 679.5,395C 644.252,396.653 608.918,396.986 573.5,396C 572.376,395.751 571.376,395.251 570.5,394.5C 564.5,386.833 558.5,379.167 552.5,371.5C 558.654,370.833 564.654,370.167 570.5,369.5 Z"/></g>
<g><path style="opacity:0.966" fill="#3b2920" d="M 151.5,406.5 C 190.215,406.024 228.881,406.524 267.5,408C 256.012,423.977 244.012,439.477 231.5,454.5C 185.189,455.657 138.856,455.823 92.5,455C 91.5,454.667 90.5,454.333 89.5,454C 110.636,438.686 131.303,422.853 151.5,406.5 Z"/></g>
<g><path style="opacity:0.991" fill="#d4cea2" d="M 280.5,406.5 C 305.898,406.028 331.231,406.528 356.5,408C 374.585,424.533 393.585,439.866 413.5,454C 385.547,455.15 357.547,455.65 329.5,455.5C 301.453,455.65 273.453,455.15 245.5,454C 257.384,438.289 269.051,422.456 280.5,406.5 Z"/></g>
<g><path style="opacity:0.971" fill="#3b2920" d="M 495.5,406.5 C 519.899,406.029 544.232,406.529 568.5,408C 579.955,423.077 591.288,438.244 602.5,453.5C 570.021,455.004 537.521,455.67 505,455.5C 482.105,455.652 459.272,455.152 436.5,454C 457.511,439.82 477.178,423.987 495.5,406.5 Z"/></g>
<g><path style="opacity:0.983" fill="#d4cea2" d="M 602.5,406.5 C 632.835,406.333 663.168,406.5 693.5,407C 715.663,421.921 737.329,437.588 758.5,454C 734.728,455.152 710.894,455.652 687,455.5C 663.477,455.49 639.977,455.157 616.5,454.5C 604.18,439.502 592.18,424.168 580.5,408.5C 587.989,407.833 595.322,407.167 602.5,406.5 Z"/></g>
<g><path style="opacity:0.992" fill="#d4cea2" d="M 70.5,466.5 C 121.538,466.023 172.538,466.523 223.5,468C 204.416,494.029 184.749,519.529 164.5,544.5C 118.856,545.657 73.189,545.823 27.5,545C 16.7341,542.225 11.0674,535.225 10.5,524C 10.8066,519.273 11.9733,514.773 14,510.5C 33.3056,496.352 52.1389,481.685 70.5,466.5 Z"/></g>
<g><path style="opacity:0.984" fill="#3b2a1f" d="M 235.5,466.5 C 297.167,466.5 358.833,466.5 420.5,466.5C 420.5,492.833 420.5,519.167 420.5,545.5C 339.809,545.977 259.143,545.477 178.5,544C 197.718,518.289 216.718,492.456 235.5,466.5 Z"/></g>
<g><path style="opacity:0.991" fill="#d3cda2" d="M 427.5,466.5 C 487.168,466.333 546.834,466.5 606.5,467C 608.9,467.186 611.234,467.686 613.5,468.5C 632.167,493.5 650.833,518.5 669.5,543.5C 652.176,544.333 634.843,544.833 617.5,545C 554.168,545.5 490.834,545.667 427.5,545.5C 427.5,519.167 427.5,492.833 427.5,466.5 Z"/></g>
<g><path style="opacity:0.981" fill="#3b2920" d="M 625.5,466.5 C 676.2,466.028 726.866,466.528 777.5,468C 796,481.833 814.5,495.667 833,509.5C 840.19,522.147 838.357,533.313 827.5,543C 824.956,544.092 822.289,544.759 819.5,545C 774.144,545.823 728.811,545.656 683.5,544.5C 663.025,519.357 643.692,493.357 625.5,466.5 Z"/></g>
</svg>
